Simulation
nRows=44
nColumns=15
endheader
time  TH_x TH_y TH_z SC_y  SC_z  SC_x  AC_y  AC_z  AC_x  GH_y  GH_z  GH_yy  EL_x  PS_y
8.6175  0.000000  0.000000  0.000000  -40.18269842181696  1.7391635433097483  -4.057461553630507  40.227511757818135  5.0737802100673814  -2.2852691476995943  69.87235814349303  7.536440595120058  -48.014549203361916  20.45598397105643  120.000000
8.67495  0.000000  0.000000  0.000000  -38.513227044722626  1.0442440714163501  -5.586131569677698  39.4339718936701  5.149332723631922  -2.4726884599111485  62.513096911197  9.0113883359472  -41.789435089159554  20.376370824262622  120.000000
8.7324  0.000000  0.000000  0.000000  -36.831829794448254  0.27548301082839943  -7.25591297058805  38.825860510941524  5.247687367905274  -2.315716281786454  57.76389968857644  10.93819372093126  -38.061096348785604  20.492659596837168  120.000000
8.78985  0.000000  0.000000  0.000000  -35.30796846005779  -0.49947963464174744  -8.962307734738642  38.49259811668261  5.356832803932769  -1.6525567836654977  54.852810777630935  13.157725060201464  -36.05060821747457  20.78232915851231  120.000000
8.8473  0.000000  0.000000  0.000000  -34.106042048158045  -1.1836470191541868  -10.678235862106936  38.596895065071095  5.54442938762131  -0.3853164497411295  53.041908293555196  15.568635995590855  -35.095840742894595  21.164441316132866  120.000000
8.90475  0.000000  0.000000  0.000000  -33.35018537675897  -1.6819973367442564  -12.417471020322697  39.272878319296666  5.930022088852255  1.4770915038465744  51.883978105134815  18.115383353233387  -34.84323583309393  21.545379789618373  120.000000
8.9622  0.000000  0.000000  0.000000  -33.122280859514575  -1.9211696482040825  -14.169913061089789  40.503931155877886  6.609198254721613  3.8428240434994634  51.223523714039544  20.74822128986308  -35.21056397774625  21.855517978535957  120.000000
9.01965  0.000000  0.000000  0.000000  -33.46424869511532  -1.8795097036547186  -15.890166662215952  42.14876616162528  7.616095559201637  6.571908961918735  51.047641829646004  23.42431857474194  -36.24758731007404  22.053187198978783  120.000000
9.0771  0.000000  0.000000  0.000000  -34.341281436389046  -1.4997624031124668  -17.50814914809516  44.09172728671419  8.90209625720901  9.483878739206416  51.3973555434436  26.137671211932812  -38.041856358340105  22.13255011545566  120.000000
9.13455  0.000000  0.000000  0.000000  -35.57391353084434  -0.6855042951959052  -18.92252550203384  46.359778595414156  10.396061563652806  12.331058917430985  52.24744542273711  28.965021393092552  -40.603228005383926  22.115208134340175  120.000000
9.192  0.000000  0.000000  0.000000  -36.90845333179305  0.6153996270889592  -19.951748534653465  48.99091843170714  12.039899664598128  14.892774263456369  53.443755423834965  31.977346131461555  -43.79932388069685  22.018114158555445  120.000000
9.24945  0.000000  0.000000  0.000000  -38.21510175718828  2.384860067920702  -20.304060989717406  51.818544250906726  13.727415417727357  17.142873081819598  54.83794650013899  35.05923347463984  -47.43236770344234  21.851122229946828  120.000000
9.3069  0.000000  0.000000  0.000000  -39.50175133207726  4.512543182780846  -19.630399818216024  54.51719217373007  15.301838082498907  19.241271183712893  56.40440454008729  37.94341816689152  -51.35905420890189  21.61071408125494  120.000000
9.36435  0.000000  0.000000  0.000000  -40.799166166872965  6.869597129179035  -17.622536135205866  56.842480210239465  16.613006776865106  21.357645653140604  58.19318961671057  40.444943610569545  -55.532971659251245  21.295312147213128  120.000000
9.421800000000001  0.000000  0.000000  0.000000  -42.152459312056635  9.390430069068392  -14.12077162094963  58.7254204680028  17.54280859801374  23.51549916671808  60.13924666170966  42.57179967009188  -59.91220127666942  20.917195119212654  120.000000
9.47925  0.000000  0.000000  0.000000  -43.62895943012956  12.172162264424388  -9.161255228410992  60.25499302084415  18.00310141934967  25.53467531214187  61.9773647081095  44.47087788034785  -64.37440070579503  20.474456540137812  120.000000
9.5367  0.000000  0.000000  0.000000  -45.37397127483572  15.233538617982346  -2.917229579591767  61.55720621028324  17.93327088555669  27.183441788275097  63.368050093897466  46.27704963824377  -68.6821312960972  19.995962339610045  120.000000
9.59415  0.000000  0.000000  0.000000  -47.50725939012482  18.30324967705164  4.37052313884783  62.63319575416026  17.208785150201166  28.469857646708768  64.17611044838294  47.94956490536388  -72.60388375153084  19.507351460698626  120.000000
9.6516  0.000000  0.000000  0.000000  -49.98438523880588  20.964675588806255  12.353540901996311  63.44406442381029  15.718999953897216  29.516891907774504  64.4787230625015  49.33517974205371  -75.96291318684423  19.02910108257535  120.000000
9.70905  0.000000  0.000000  0.000000  -52.60420015514647  22.936146278056377  20.614356888640273  64.06235662492136  13.491998934572756  30.25421770720392  64.35591923589759  50.35835861562199  -78.60580122413066  18.607491116200503  120.000000
9.7665  0.000000  0.000000  0.000000  -55.07426029536895  24.20066885941527  28.838801334015848  64.57475586261444  10.564282921747129  30.482604565428314  63.89795009641578  51.03293033536819  -80.45073918011049  18.27409747409502  120.000000
9.82395  0.000000  0.000000  0.000000  -57.07369806513536  24.846656650889926  36.6563605475108  64.95933054386037  7.049327103328504  30.11825775644244  63.24757411544398  51.376121605616895  -81.52382342655928  18.049200805690173  120.000000
9.8814  0.000000  0.000000  0.000000  -58.39989466807978  25.06377212439349  43.599472463919454  65.18067917581223  3.2351283914649147  29.216799797896723  62.567916922927076  51.430016540307804  -81.94790330121052  17.933602358782124  120.000000
9.93885  0.000000  0.000000  0.000000  -59.002053377845016  25.047128798161115  49.27902452608743  65.24654427426704  -0.5783304032541373  27.876448658134265  62.01556285796008  51.26160216226397  -81.8937062739841  17.912028570475584  120.000000
9.9963  0.000000  0.000000  0.000000  -58.905267793032166  24.907381682320636  53.39680636218494  65.18876240732511  -4.128657183035149  26.205360969602438  61.70118415117475  50.931690265561514  -81.52364009961381  17.961776322629788  120.000000
10.05375  0.000000  0.000000  0.000000  -58.18533617753851  24.694844032196016  55.76007268475092  65.05268949819262  -7.197290373645728  24.316186746447517  61.675112081101226  50.4925049687408  -80.9440774857768  18.05109206895016  120.000000
10.1112  0.000000  0.000000  0.000000  -56.945309433605885  24.40546764191062  56.27808319410598  64.87414756931366  -9.64825078624079  22.334960723027624  61.92635783269921  49.98756919794936  -80.17268818414563  18.14753017300423  120.000000
10.16865  0.000000  0.000000  0.000000  -55.332140292319785  24.007055031142706  54.97646106696956  64.66568164237064  -11.443495594987521  20.399724460291694  62.37117475381628  49.45914172955186  -79.10861703386496  18.226915144383973  120.000000
10.2261  0.000000  0.000000  0.000000  -53.49180597704723  23.43530819446297  51.95476397257434  64.3742002614729  -12.579870049593792  18.617603057331852  62.90592526363922  48.9371428987111  -77.57462568138932  18.278114864880393  120.000000
10.28355  0.000000  0.000000  0.000000  -51.51074817077501  22.568200389488645  47.3192917303342  63.86090456733471  -12.97956277384887  17.001545826945822  63.500958933700716  48.418228355109605  -75.42303838268953  18.291177006159568  120.000000
10.341000000000001  0.000000  0.000000  0.000000  -49.43746815721054  21.29022856196778  41.21448920255346  62.967826275323475  -12.536482598173283  15.483681121113344  64.14833733497181  47.88865749416351  -72.56967775876778  18.261577095755584  120.000000
10.39845  0.000000  0.000000  0.000000  -47.335833162217575  19.54159927988051  33.895375326776765  61.56688553716587  -11.243834350846313  13.995554618025858  64.78497796030707  47.34386252963871  -68.99228527981187  18.20825806642542  120.000000
10.4559  0.000000  0.000000  0.000000  -45.309327004624514  17.36234421527163  25.73510570940053  59.55582219875231  -9.224891084768238  12.516411328813513  65.3313738486203  46.79419744805452  -64.77395664023156  18.183756973594065  120.000000
10.51335  0.000000  0.000000  0.000000  -43.45155904980733  14.92207503232318  17.185738709672947  56.90449336657495  -6.665591878469388  11.068722616309184  65.75409859319286  46.28411794272089  -60.13150973384245  18.270384796257805  120.000000
10.5708  0.000000  0.000000  0.000000  -41.77137004905108  12.468142141833413  8.707667715156113  53.67546500956087  -3.756731574078068  9.737146555737823  66.10945022776649  45.83312894106739  -55.39245423630854  18.549440781480843  120.000000
10.62825  0.000000  0.000000  0.000000  -40.233457722430344  10.175239386561268  0.7064953209503778  49.994158900594634  -0.6870406569053358  8.680696062251696  66.51445336835395  45.3330707070731  -50.90723769266827  19.060341509786955  120.000000
10.6857  0.000000  0.000000  0.000000  -38.85138683308623  8.103415616720385  -6.486582523218297  46.04248343720418  2.3575708823311645  8.09361597498249  67.05261454020909  44.544566648016776  -46.95022098193683  19.780434077927207  120.000000
10.74315  0.000000  0.000000  0.000000  -37.676035470687964  6.310980972412463  -12.623658899263035  42.12449307197671  5.241371143374345  8.115504968686803  67.70081380238456  43.20684054955823  -43.65145099257054  20.646159097523434  120.000000
10.8006  0.000000  0.000000  0.000000  -36.77980145373854  4.9408197247650945  -17.59421770618302  38.69859235842124  7.884329720422049  8.731324248773051  68.28033107086281  41.168920105965206  -40.98025773800735  21.5783473526674  120.000000
10.85805  0.000000  0.000000  0.000000  -36.239077878146944  4.128570666854245  -21.450473275618172  36.25397294872379  10.247194145597327  9.754103373257879  68.45272191281822  38.459242844064  -38.754155536328035  22.439091919859784  120.000000
10.9155  0.000000  0.000000  0.000000  -36.108250039063556  3.8115334519760053  -24.2860996570368  34.93764792005915  12.318601152895388  10.97931810894569  68.02644576374483  35.174092865975425  -36.73389036139714  23.106000382354658  120.000000
10.97295  0.000000  0.000000  0.000000  -36.457662595176174  3.7991145581660737  -26.15965412140877  34.432307678423754  14.069452863689417  12.345353213286419  67.25601947058284  31.394872464482965  -34.854537689519496  23.555597795041482  120.000000
11.0304  0.000000  0.000000  0.000000  -37.28377579082774  3.8858603608924778  -27.156626224943036  34.37789746970518  15.559076102438434  13.790584093378339  66.4826221146  27.254004742958397  -33.1708909580979  23.76140791241049  120.000000
11.08785  0.000000  0.000000  0.000000  -38.50586788151013  3.9697671156808494  -27.429570258267095  34.62858169966172  16.945826915286318  15.161260140466528  65.99859019922958  22.97484780538537  -31.830044680945704  23.68511080682205  120.000000
